<svg xmlns="http://www.w3.org/2000/svg" viewBox="0 0 700 700">
  <path d="M147.8 87.9L6.7 308.1c-8.5 14.1-11.3 31-2.8 48l121.4 234.3c8.5 16.9 33.9 19.8 45.2 2.8L311.6 373c8.5-14.1 11.3-31 2.8-48L193 90.7c-8.5-19.7-33.9-19.7-45.2-2.8zM82.9 347.6c-14.1 0-25.4-11.3-25.4-25.4s11.3-25.4 25.4-25.4 25.4 11.3 25.4 25.4-11.3 25.4-25.4 25.4zM145 471.8c-14.1 0-25.4-11.3-25.4-25.4S130.9 421 145 421s25.4 11.3 25.4 25.4c0 14.1-11.3 25.4-25.4 25.4zm8.5-234.3c-14.1 0-25.4-11.3-25.4-25.4s11.3-25.4 25.4-25.4c14.1 0 25.4 11.3 25.4 25.4 0 14.1-11.3 25.4-25.4 25.4zm70.6 129.8c-14.1 0-25.4-11.3-25.4-25.4s11.3-25.4 25.4-25.4 25.4 11.3 25.4 25.4c0 14.2-11.3 25.4-25.4 25.4zM348.2 395.6L204.3 621.4c-11.3 16.9 0 39.5 19.8 39.5L500.7 675c16.9 0 33.9-8.5 42.3-22.6l143.9-225.8c11.3-16.9 0-39.5-19.8-39.5L390.6 373c-17 0-33.9 8.5-42.4 22.6zm-2.8 214.5c-14.1 0-25.4-11.3-25.4-25.4s11.3-25.4 25.4-25.4c14.1 0 25.4 11.3 25.4 25.4s-11.3 25.4-25.4 25.4zm206.1-112.9c-14.1 0-25.4-11.3-25.4-25.4s11.3-25.4 25.4-25.4 25.4 11.3 25.4 25.4c2.8 14.1-8.5 25.4-25.4 25.4zM531.7 37.1L252.3 23c-19.8 0-33.9 19.8-22.6 36.7l124.2 242.7c8.5 14.1 22.6 25.4 39.5 25.4l279.4 14.1c19.8 0 33.9-19.8 22.6-36.7L571.2 62.5c-8.4-14.1-22.6-25.4-39.5-25.4zm-56.4 175c-14.1 0-25.4-11.3-25.4-25.4 0-14.1 11.3-25.4 25.4-25.4 14.1 0 25.4 11.3 25.4 25.4 0 14.1-11.3 25.4-25.4 25.4z"/>
</svg>